<svg width="1200" height="1200" viewBox="0 0 1200 1200" fill="none" xmlns="http://www.w3.org/2000/svg">
<g clip-path="url(#clip0_10_8)">
<g filter="url(#filter0_d_10_8)">
<g filter="url(#filter1_d_10_8)">
<path d="M82.8809 514.852C82.8809 515.453 82.8208 516.534 82.7007 518.095C79.938 539.836 78.5566 575.511 78.5566 625.12C78.5566 635.69 78.6768 651.605 78.917 672.866C79.1572 694.127 79.2773 710.042 79.2773 720.613C79.2773 725.297 77.2954 727.64 73.3315 727.64C69.3677 727.64 63.6621 727.76 56.2148 728C48.7676 728.24 43.1821 728.36 39.4585 728.36C35.7349 728.36 33.873 726.859 33.873 723.856C33.873 721.333 34.6538 699.232 36.2153 657.551C36.936 637.372 37.2964 607.943 37.2964 569.265C37.2964 566.502 36.6958 565.121 35.4946 565.121C32.6118 565.121 28.0474 566.082 21.8013 568.004C15.6753 569.926 11.1108 570.887 8.10791 570.887C5.34521 570.887 3.96387 570.166 3.96387 568.725C3.96387 567.283 4.08398 565.121 4.32422 562.238C4.68457 559.355 4.86475 557.193 4.86475 555.752C4.86475 554.431 4.74463 552.449 4.50439 549.806C4.26416 547.164 4.14404 545.182 4.14404 543.86C4.14404 542.299 5.46533 540.978 8.10791 539.896C15.0747 537.014 22.4619 532.089 30.2695 525.122C30.6299 524.762 33.9331 521.158 40.1792 514.312C45.5845 508.426 48.5874 505.483 49.188 505.483C49.0679 505.483 54.0527 506.564 64.1426 508.726C67.8662 509.207 73.2715 510.107 80.3584 511.429C82.04 511.909 82.8809 513.05 82.8809 514.852ZM264.678 654.849C264.678 680.914 256.21 700.673 239.273 714.126C223.778 726.619 202.698 732.865 176.032 732.865C167.503 732.865 154.831 731.303 138.015 728.18C117.114 724.336 106.664 720.192 106.664 715.748C106.664 711.544 107.565 704.637 109.367 695.028C111.409 683.977 113.391 678.452 115.312 678.452C113.631 678.452 118.976 681.755 131.348 688.361C143.84 694.848 155.552 698.091 166.482 698.091C181.497 698.091 193.689 695.088 203.058 689.082C214.109 681.875 219.634 671.245 219.634 657.191C219.634 633.648 202.337 621.876 167.744 621.876C163.179 621.876 156.453 622.537 147.564 623.858C138.795 625.18 132.669 625.84 129.186 625.84C126.543 625.84 124.862 625.06 124.141 623.498C123.901 622.777 123.781 621.696 123.781 620.255C123.661 617.732 123.721 614.189 123.961 609.625C124.081 604.459 124.141 600.916 124.141 598.994C124.141 590.226 124.021 577.073 123.781 559.536C123.541 541.878 123.42 528.666 123.42 519.897C123.42 518.215 124.742 516.173 127.384 513.771C130.147 511.249 132.369 509.987 134.051 509.987C140.297 509.987 149.726 510.288 162.338 510.888C174.951 511.369 184.44 511.609 190.806 511.609C196.812 511.609 205.881 511.309 218.013 510.708C230.265 510.107 239.454 509.807 245.58 509.807C248.342 509.807 249.724 510.948 249.724 513.23C249.724 515.753 249.123 520.377 247.922 527.104C246.841 533.831 246.3 538.936 246.3 542.419C246.3 543.74 245.339 545.122 243.417 546.563C241.616 548.004 239.994 548.725 238.553 548.725C232.307 548.725 222.938 548.365 210.445 547.644C198.073 546.923 188.764 546.563 182.518 546.563C173.629 546.563 165.822 546.743 159.095 547.104C159.095 556.953 158.495 572.088 157.293 592.508C160.897 592.508 166.302 592.087 173.509 591.247C180.836 590.406 186.362 589.985 190.085 589.985C212.187 589.985 229.784 595.09 242.877 605.3C257.411 616.711 264.678 633.228 264.678 654.849Z" fill="#E9C238"/>
<path d="M492.601 650.164C492.601 671.064 486.294 689.022 473.682 704.037C460.349 719.772 443.413 727.64 422.873 727.64C415.185 727.64 403.594 727.459 388.099 727.099C372.724 726.739 361.192 726.559 353.505 726.559C347.859 726.559 339.331 726.799 327.92 727.279C316.629 727.76 308.161 728 302.515 728C299.512 728 298.011 726.619 298.011 723.856C298.011 710.643 298.611 690.824 299.812 664.398C301.134 637.852 301.794 617.973 301.794 604.76C301.794 590.826 301.134 569.926 299.812 542.059C298.611 514.071 298.011 493.111 298.011 479.177C298.011 476.535 299.512 475.213 302.515 475.213C313.206 475.213 329.301 475.273 350.802 475.394C372.303 475.514 388.459 475.574 399.27 475.574C424.494 475.574 444.614 480.258 459.628 489.627C477.886 501.039 487.015 518.756 487.015 542.779C487.015 551.067 484.613 559.716 479.808 568.725C475.003 577.613 469.178 584.34 462.331 588.904C458.848 591.187 457.106 592.688 457.106 593.409C457.106 594.129 458.848 595.451 462.331 597.373C471.46 602.417 478.787 609.865 484.312 619.714C489.838 629.444 492.601 639.594 492.601 650.164ZM441.971 546.743C441.971 529.807 434.404 518.396 419.269 512.51C410.14 509.026 395.186 507.285 374.405 507.285C354.226 507.285 344.136 508.786 344.136 511.789C344.136 515.753 343.956 521.699 343.595 529.626C343.235 537.554 343.055 543.56 343.055 547.644C343.055 550.407 343.115 554.671 343.235 560.437C343.355 566.202 343.415 570.526 343.415 573.409C343.415 576.893 356.988 578.634 384.135 578.634C422.692 578.634 441.971 568.004 441.971 546.743ZM446.836 648.362C446.836 633.708 440.29 623.798 427.197 618.633C418.909 615.27 405.996 613.588 388.459 613.588C358.189 613.588 343.055 615.21 343.055 618.453V648.002C343.055 652.326 343.175 658.933 343.415 667.821C343.655 676.71 343.775 683.376 343.775 687.821C343.775 689.022 347.619 689.923 355.307 690.523C362.994 691.124 374.405 691.424 389.54 691.424C408.519 691.424 422.152 688.962 430.44 684.037C441.371 677.551 446.836 665.659 446.836 648.362ZM690.073 564.581C690.073 573.349 689.713 586.622 688.992 604.399C688.271 622.057 687.911 635.33 687.911 644.218C687.911 652.987 688.151 666.14 688.632 683.677C689.232 701.094 689.533 714.187 689.533 722.955C689.533 725.357 688.392 726.919 686.109 727.64C685.148 727.88 672.957 728 649.534 728C648.092 728 647.191 723.496 646.831 714.487C646.591 705.478 645.93 700.974 644.849 700.974C644.249 700.974 643.348 701.514 642.146 702.595C622.087 720.012 602.268 728.721 582.688 728.721C556.143 728.721 538.605 719.111 530.077 699.893C524.792 688.001 522.149 666.62 522.149 635.75C522.149 607.883 524.372 584.28 528.816 564.941C529.897 560.256 531.879 557.914 534.762 557.914C538.245 557.914 543.47 557.974 550.437 558.094C557.404 558.214 562.629 558.274 566.112 558.274C568.515 558.274 569.716 559.596 569.716 562.238C569.716 566.923 568.935 574.73 567.374 585.661C565.692 597.312 564.791 605.541 564.671 610.345C564.311 617.552 564.13 625.48 564.13 634.128C564.13 655.149 565.632 669.263 568.635 676.47C573.8 689.442 585.271 695.929 603.048 695.929C610.616 695.929 619.564 692.205 629.895 684.758C640.825 676.95 646.471 669.443 646.831 662.236C647.432 653.227 647.732 621.516 647.732 567.103C647.732 561.217 650.194 558.274 655.119 558.274H684.848C688.332 558.274 690.073 560.376 690.073 564.581ZM852.592 564.581C852.592 567.223 851.21 573.109 848.448 582.238C845.685 591.367 843.763 595.931 842.682 595.931C837.277 593.529 831.812 591.126 826.286 588.724C820.881 586.322 814.935 585.121 808.449 585.121C793.674 585.121 781.362 590.586 771.513 601.517C761.663 612.447 756.738 625.36 756.738 640.254C756.738 654.909 761.663 667.581 771.513 678.271C781.603 689.322 793.915 694.848 808.449 694.848C816.497 694.848 824.424 692.866 832.232 688.902C840.04 684.938 843.463 682.956 842.502 682.956C844.063 682.956 845.805 688.001 847.727 698.091C849.529 707.22 850.43 713.526 850.43 717.009C850.43 720.733 843.403 724.396 829.349 728C817.578 731.003 808.869 732.504 803.224 732.504C778.479 732.504 757.579 723.255 740.522 704.757C723.826 686.74 715.478 665.239 715.478 640.254C715.478 614.79 723.646 593.168 739.982 575.391C756.798 557.133 777.759 548.004 802.863 548.004C819.68 548.004 835.055 552.269 848.988 560.797C851.391 562.238 852.592 563.5 852.592 564.581ZM1052.41 604.399C1052.41 635.63 1037.93 656.53 1008.98 667.101C1008.98 673.227 1014.99 684.337 1027 700.433C1039.01 716.409 1045.02 724.396 1045.02 724.396C1045.02 726.198 1039.01 727.399 1027 728C1019.07 728.36 1013.13 728.541 1009.16 728.541C1000.64 728.541 995.291 726.739 993.129 723.135C987.483 713.526 978.595 699.532 966.463 681.154C965.021 678.992 951.989 678.091 927.365 678.452L920.338 678.632V723.135C920.338 726.859 919.017 728.721 916.374 728.721C912.53 728.721 906.825 728.661 899.257 728.541C891.81 728.42 886.165 728.36 882.321 728.36C879.678 728.36 878.357 726.018 878.357 721.333V609.264C878.357 594.61 877.756 572.688 876.555 543.5C875.474 514.312 874.934 492.39 874.934 477.736C874.934 475.574 876.075 474.373 878.357 474.132C882.321 474.012 888.327 473.772 896.375 473.412C898.056 473.292 901.6 472.871 907.005 472.15C911.329 471.55 914.812 471.25 917.455 471.25C919.137 471.25 919.978 472.691 919.978 475.574C919.978 482.06 919.677 491.729 919.077 504.582C918.476 517.435 918.176 527.104 918.176 533.59V580.076C918.176 582.598 918.716 583.859 919.797 583.859C922.68 581.457 927.004 577.914 932.77 573.229C952.95 557.614 972.168 549.806 990.426 549.806C1008.2 549.806 1022.74 554.371 1034.03 563.5C1046.28 573.469 1052.41 587.103 1052.41 604.399ZM1008.98 612.868C1008.98 595.691 997.874 587.103 975.652 587.103C959.076 587.103 940.397 598.153 919.617 620.255V647.101C929.347 648.903 941.118 649.804 954.932 649.804C968.865 649.804 980.757 647.161 990.606 641.876C1002.86 635.27 1008.98 625.6 1008.98 612.868ZM1161.41 672.506C1161.41 690.403 1154.27 704.757 1139.97 715.568C1127 725.417 1111.2 730.342 1092.59 730.342C1085.38 730.342 1081.29 730.162 1080.33 729.802C1078.29 728.841 1077.27 725.898 1077.27 720.973C1077.27 718.331 1076.91 714.367 1076.19 709.082C1075.59 703.796 1075.29 699.893 1075.29 697.37C1075.29 695.809 1076.37 694.788 1078.53 694.307C1080.09 693.947 1082.32 693.947 1085.2 694.307C1088.92 694.667 1090.72 694.848 1090.6 694.848C1113.31 694.848 1124.66 687.881 1124.66 673.947C1124.66 667.341 1119.67 661.275 1109.7 655.75C1093.49 646.861 1084.18 641.396 1081.78 639.354C1071.81 630.825 1066.82 619.654 1066.82 605.841C1066.82 587.823 1073.61 573.77 1087.18 563.68C1099.43 554.671 1114.93 550.167 1133.67 550.167C1135.35 550.167 1136.55 550.947 1137.27 552.509C1138.11 554.07 1139.61 558.935 1141.77 567.103C1144.06 575.271 1145.2 580.196 1145.2 581.877C1145.2 583.199 1144.06 584.04 1141.77 584.4C1134.09 585.481 1126.34 586.502 1118.53 587.463C1109.28 589.985 1104.66 595.03 1104.66 602.598C1104.66 608.003 1109.52 613.468 1119.25 618.994C1133.67 627.042 1142.79 632.867 1146.64 636.471C1156.49 645.84 1161.41 657.852 1161.41 672.506Z" fill="black"/>
</g>
<path d="M154.535 476.891L154.535 761.457" stroke="#57A608" stroke-width="25" stroke-linecap="round"/>
<path d="M154.535 476.891L154.535 761.457" stroke="#57A608" stroke-width="25" stroke-linecap="round"/>
<path d="M200.41 476.891L200.41 761.457" stroke="#57A608" stroke-width="25" stroke-linecap="round"/>
<path d="M200.41 476.891L200.41 761.457" stroke="#57A608" stroke-width="25" stroke-linecap="round"/>
</g>
</g>
<defs>
<filter id="filter0_d_10_8" x="3.96387" y="464.391" width="1178.95" height="331.066" filterUnits="userSpaceOnUse" color-interpolation-filters="sRGB">
<feFlood flood-opacity="0" result="BackgroundImageFix"/>
<feColorMatrix in="SourceAlpha" type="matrix" values="0 0 0 0 0 0 0 0 0 0 0 0 0 0 0 0 0 0 127 0" result="hardAlpha"/>
<feOffset dx="15" dy="15"/>
<feGaussianBlur stdDeviation="3.25"/>
<feColorMatrix type="matrix" values="0 0 0 0 0 0 0 0 0 0 0 0 0 0 0 0 0 0 0.25 0"/>
<feBlend mode="normal" in2="BackgroundImageFix" result="effect1_dropShadow_10_8"/>
<feBlend mode="normal" in="SourceGraphic" in2="effect1_dropShadow_10_8" result="shape"/>
</filter>
<filter id="filter1_d_10_8" x="-0.0361328" y="471.25" width="1165.45" height="269.615" filterUnits="userSpaceOnUse" color-interpolation-filters="sRGB">
<feFlood flood-opacity="0" result="BackgroundImageFix"/>
<feColorMatrix in="SourceAlpha" type="matrix" values="0 0 0 0 0 0 0 0 0 0 0 0 0 0 0 0 0 0 127 0" result="hardAlpha"/>
<feOffset dy="4"/>
<feGaussianBlur stdDeviation="2"/>
<feComposite in2="hardAlpha" operator="out"/>
<feColorMatrix type="matrix" values="0 0 0 0 0 0 0 0 0 0 0 0 0 0 0 0 0 0 0.25 0"/>
<feBlend mode="normal" in2="BackgroundImageFix" result="effect1_dropShadow_10_8"/>
<feBlend mode="normal" in="SourceGraphic" in2="effect1_dropShadow_10_8" result="shape"/>
</filter>
<clipPath id="clip0_10_8">
<rect width="1200" height="1200" fill="white"/>
</clipPath>
</defs>
</svg>
